PathFileType	4	(X/Y/Z)	C:/Users/opensim2020/Desktop/walking_exp_matlab/subject01_walking10_straight_03.trc																																																																																																																															
DataRate	CameraRate	NumFrames	NumMarkers	Units	OrigDataRate	OrigDataStartFrame	OrigNumFrames																																																																																																																											
100	100	5	43	mm	100	2850	317																																																																																																																											
Frame#	Time	LFHD			RFHD			LBHD			RBHD			C7			T10			CLAV			STRN			RBAK			LSHO			LUPA			LELB			LFRM			LWRA			LWRB			LFIN			RSHO			RUPA			RELB			RFRM			RWRA			RWRB			RFIN			LASI			RASI			LPSI			RPSI			LTHI			LKNE			LTIB			LANK			LHEE			LTOE			RTHI			RKNE			RTIB			RANK			RHEE			RTOE			*39			*40			*41			*42		
		X1	Y1	Z1	X2	Y2	Z2	X3	Y3	Z3	X4	Y4	Z4	X5	Y5	Z5	X6	Y6	Z6	X7	Y7	Z7	X8	Y8	Z8	X9	Y9	Z9	X10	Y10	Z10	X11	Y11	Z11	X12	Y12	Z12	X13	Y13	Z13	X14	Y14	Z14	X15	Y15	Z15	X16	Y16	Z16	X17	Y17	Z17	X18	Y18	Z18	X19	Y19	Z19	X20	Y20	Z20	X21	Y21	Z21	X22	Y22	Z22	X23	Y23	Z23	X24	Y24	Z24	X25	Y25	Z25	X26	Y26	Z26	X27	Y27	Z27	X28	Y28	Z28	X29	Y29	Z29	X30	Y30	Z30	X31	Y31	Z31	X32	Y32	Z32	X33	Y33	Z33	X34	Y34	Z34	X35	Y35	Z35	X36	Y36	Z36	X37	Y37	Z37	X38	Y38	Z38	X39	Y39	Z39	X40	Y40	Z40	X41	Y41	Z41	X42	Y42	Z42	X43	Y43	Z43
																																																																																																																																		
1	0	-923.47144	1678.84509	1438.15833	-898.16235	1687.20752	1549.13293	-1028.37732	1614.08606	1458.37036	-1004.54358	1621.38464	1576.51746	-1036.9928	1429.64343	1484.16455	-1068.55591	1138.13782	1490.14587	-891.84998	1367.43311	1488.64917	-846.06201	1212.20984	1483.07202	-1090.26709	1234.91138	1555.90979	-945.84381	1395.31689	1325.45227	-961.42731	1208.96326	1237.37817	-962.18182	1057.91528	1234.03186	-908.44366	957.23785	1209.08594	-815.17859	854.87402	1227.90076	-867.42651	842.17023	1202.50037	-809.48248	781.22272	1192.50354	-961.95038	1392.29504	1639.20325	-1032.96021	1190.68799	1727.16858	-1034.58972	1066.7406	1725.59583	-1016.02734	947.94751	1757.08801	-939.41656	827.87341	1744.64331	-987.19678	830.50354	1779.28809	-953.00031	751.67432	1779.86182	-896.74701	933.29077	1381.22449	-895.96912	936.23517	1597.84839	-1083.76733	942.84882	1436.39233	-1079.98401	943.43597	1581.90259	-914.16675	600.57928	1334.81616	-918.6767	464.84064	1353.95886	-968.30347	279.19684	1355.74731	-987.16376	64.39564	1418.64258	-1024.74487	34.90728	1477.35181	-844.68597	33.00417	1391.9458	-882.16382	609.60522	1672.19312	-850.05243	454.13727	1657.45105	-977.3974	330.49173	1659.32458	-1098.69006	164.67877	1613.92029	-1152.10388	147.59476	1555.51245	-1010.11261	62.42739	1643.58521	-918.6156	1718.17615	1528.7616	1973.09583	1023.32452	-3101.90527	2012.42847	1021.99561	-3140.74976	NaN	NaN	NaN
2	0.01	-917.32471	1679.16052	1436.62952	-891.99359	1687.44092	1547.72595	-1022.33038	1614.38989	1457.00757	-998.39148	1621.6936	1575.19019	-1030.88757	1429.92334	1483.09717	-1062.88599	1138.46655	1489.35632	-883.91925	1367.87683	1488.90527	-840.3327	1212.29688	1481.89539	-1084.49023	1235.62622	1555.21619	-940.09863	1395.5083	1324.34595	-954.89557	1209.2616	1236.26318	-954.57782	1058.0863	1233.00964	-899.18567	958.04828	1208.30432	-804.02515	857.44049	1227.23767	-856.14172	843.8175	1201.86389	-797.02875	783.90985	1191.9812	-955.591	1392.60461	1638.16296	-1027.63782	1191.41895	1726.24316	-1029.97778	1067.49341	1724.57703	-1012.17841	948.60547	1756.0769	-936.33447	828.04559	1743.75977	-984.18689	830.90308	1778.4989	-950.50708	751.66052	1778.71716	-892.23804	933.10614	1380.08667	-890.19128	936.87738	1596.78833	-1078.64575	943.02795	1436.38757	-1074.14136	943.90662	1581.91553	-911.08795	600.15051	1334.73389	-916.6358	464.41055	1353.98975	-967.37708	279.25061	1356.12292	-986.81787	64.46086	1418.83008	-1024.68994	35.20344	1477.45044	-844.13	32.65939	1391.96997	-872.73798	611.03503	1670.76196	-838.84186	455.73444	1655.09729	-962.38745	328.12338	1658.01794	-1078.71606	159.19815	1613.08423	-1132.09851	139.14137	1555.21472	-985.55237	60.59709	1641.49939	-912.37799	1718.35852	1527.35278	1973.18579	1023.41675	-3102.01221	2012.50476	1021.97656	-3140.72485	NaN	NaN	NaN
3	0.02	-911.09039	1679.35156	1435.43213	-885.79816	1687.53308	1546.51331	-1016.1637	1614.56567	1455.80872	-992.237	1621.95886	1573.979	-1024.91174	1430.21777	1482.1615	-1057.35144	1138.8783	1488.58252	-880.04608	1367.59106	1486.28345	-834.69922	1212.229	1480.61902	-1078.62158	1236.07178	1554.45581	-934.30383	1395.71338	1323.29834	-948.27637	1209.5575	1235.16577	-946.71783	1058.15125	1232.01001	-889.72644	958.90717	1207.47424	-792.85529	860.05762	1226.54932	-844.72107	845.41663	1201.36584	-784.74847	786.57391	1191.48108	-949.48358	1392.84741	1637.05054	-1022.47296	1192.30042	1725.39819	-1025.40149	1068.28845	1723.80981	-1008.18622	949.21887	1755.24719	-933.04663	828.13849	1743.03809	-980.77203	831.48541	1777.71387	-947.87189	751.72717	1777.75195	-887.77332	932.60846	1379.08325	-884.45776	937.31702	1595.76001	-1073.42993	943.08813	1436.27417	-1068.35535	944.34924	1581.94312	-908.01257	599.60681	1334.70374	-914.60999	464.00052	1353.91626	-966.29358	279.03195	1356.5752	-986.57495	64.42499	1419.03149	-1024.39954	35.23329	1477.61304	-843.71655	32.29376	1391.94897	-863.73059	612.30682	1669.39343	-828.10931	457.29822	1652.91992	-947.53662	325.64551	1656.61768	-1058.49683	152.54089	1611.86938	-1112.01257	131.20047	1554.59949	-960.67969	58.42868	1639.06982	-906.11932	1718.47644	1526.08862	1973.125	1023.44769	-3102.08032	2012.54578	1022.06311	-3140.58374	NaN	NaN	NaN
4	0.03	-904.92871	1679.11926	1434.474	-879.5752	1687.56799	1545.38013	-1009.95331	1614.6416	1454.71985	-986.01898	1622.03564	1572.87268	-1018.96765	1430.40405	1481.15222	-1051.62805	1139.10596	1487.65759	-874.05231	1367.5802	1485.18994	-828.98132	1212.1167	1479.43372	-1072.67749	1236.3855	1553.63257	-928.43402	1395.90295	1322.32068	-941.67261	1209.75427	1234.10632	-939.10583	1058.22473	1231.0249	-880.38623	959.8067	1206.70703	-781.77844	862.67035	1225.97229	-833.422	847.11804	1200.89331	-772.41864	789.18207	1191.12219	-943.08838	1393.0365	1636.07214	-1016.82117	1192.79871	1724.66187	-1020.59332	1068.86328	1723.0459	-1004.06165	949.76056	1754.5708	-929.64313	828.1297	1742.45361	-977.52869	831.53552	1776.99841	-945.00732	751.70856	1776.96936	-882.6062	932.2691	1378.33716	-878.7323	937.66827	1594.77551	-1068.21826	943.10669	1436.1239	-1062.5708	944.70007	1581.89954	-904.95422	599.11359	1334.64063	-912.58655	463.55447	1353.95178	-965.16791	279.01825	1357.08594	-986.12811	64.59108	1419.35852	-1024.23132	35.30061	1477.76904	-843.46741	32.20545	1391.90222	-854.75604	613.52747	1668.16541	-817.89178	458.6832	1650.8988	-932.95801	323.02606	1655.18591	-1037.96606	145.83983	1610.83972	-1090.89478	122.4488	1554.19666	-935.52014	56.39957	1637.23914	-899.87848	1718.52808	1524.97546	1973.13843	1023.7298	-3101.92041	2012.49158	1021.96729	-3140.8335	NaN	NaN	NaN
5	0.04	-898.6524	1679.25171	1433.30212	-873.29559	1687.52649	1544.37793	-1003.70038	1614.70752	1453.75061	-979.76563	1622.03662	1571.89771	-1012.78223	1430.4668	1480.27148	-1046.05127	1139.33545	1486.73779	-868.08099	1367.51172	1484.1145	-823.20935	1211.96326	1478.2998	-1066.69226	1236.59705	1552.7179	-922.54785	1396.01367	1321.34497	-935.0473	1209.9679	1233.11572	-931.34613	1058.31396	1229.98218	-870.98663	960.71021	1205.91565	-770.71802	865.32056	1225.51245	-822.09283	848.73676	1200.55017	-760.10413	791.80463	1190.9104	-936.81824	1393.07019	1634.9989	-1011.0835	1193.19873	1723.99329	-1015.65948	1069.37061	1722.37891	-999.8244	950.17834	1753.94678	-926.11475	828.11279	1741.94336	-973.79865	831.98834	1776.5625	-942.06653	751.72864	1776.44312	-876.97217	932.07031	1377.74817	-873.05023	937.93054	1593.88086	-1062.95862	942.9765	1435.94409	-1056.8468	945.03162	1581.84265	-902.15668	598.7428	1334.82629	-910.55743	463.15097	1353.9314	-963.87488	278.90128	1357.52625	-985.3916	64.38642	1419.66187	-1023.93756	35.5522	1477.99597	-842.84387	31.66175	1391.8949	-846.8783	614.1543	1666.78979	-808.13867	459.88846	1648.95618	-918.47723	320.36429	1653.82483	-1016.78906	139.09129	1609.85217	-1070.05054	113.99217	1553.04504	-909.78308	54.4127	1635.0946	-893.57056	1718.53247	1523.98486	1973.17834	1023.54675	-3101.88647	2012.45276	1022.03107	-3140.6438	NaN	NaN	NaN
